<svg width="31" height="31" viewBox="0 0 31 31" fill="none" xmlns="http://www.w3.org/2000/svg">
<path d="M6.37888 0.881836C3.14596 0.881836 0.5 3.52773 0.5 6.76072V25.0039C0.5 28.2368 3.1459 30.8818 6.37888 30.8818H24.6221C27.855 30.8818 30.5 28.2369 30.5 25.0039V6.76072C30.5 3.52779 27.855 0.881836 24.6221 0.881836H6.37888ZM7.85751 5.83244C9.40762 5.83244 10.3624 6.85006 10.3919 8.18772C10.3919 9.49584 9.40756 10.5421 7.82752 10.5421H7.79844C6.27782 10.5421 5.29499 9.4959 5.29499 8.18772C5.29499 6.85009 6.30757 5.83244 7.85748 5.83244H7.85751ZM21.2157 12.0845C24.1969 12.0845 26.4317 14.033 26.4317 18.2202V26.0371H21.9012V18.7443C21.9012 16.9117 21.2455 15.6614 19.6059 15.6614C18.3542 15.6614 17.6081 16.5041 17.2806 17.3182C17.1609 17.6095 17.1315 18.0162 17.1315 18.4237V26.0371H12.6009C12.6009 26.0371 12.6604 13.6833 12.6009 12.4042H17.1324V14.3347C17.7345 13.4058 18.8114 12.0844 21.2157 12.0844V12.0845ZM5.56222 12.4052H10.0928V26.0372H5.56222V12.4052Z" fill="#D9D9D9"/>
</svg>
