<svg width="436" height="151" viewBox="0 0 436 151" fill="none" xmlns="http://www.w3.org/2000/svg">
<g clip-path="url(#clip0_1320_2403)">
<path d="M172.027 54.3459C172.027 51.2058 173.776 49.6357 177.275 49.6357C180.773 49.6357 182.522 51.2058 182.522 54.3459C182.522 55.8424 182.085 57.0068 181.21 57.839C180.336 58.6712 179.024 59.0873 177.275 59.0873C173.776 59.0877 172.027 57.5073 172.027 54.3459ZM182.083 98.8262H172.443V63.4826H182.083V98.8262Z" fill="white"/>
<path d="M223.842 98.8262H214.199V78.1803C214.199 75.6306 213.772 73.718 212.919 72.4424C212.065 71.1669 210.722 70.5293 208.888 70.5298C206.422 70.5298 204.631 71.4362 203.514 73.249C202.397 75.0617 201.838 78.0437 201.838 82.1949V98.8234H192.199V63.4826H199.564L200.86 68.0027H201.398C202.347 66.3804 203.717 65.1107 205.508 64.1934C207.3 63.2761 209.354 62.8177 211.673 62.8182C216.962 62.8182 220.546 64.5464 222.422 68.0027H223.275C224.223 66.3592 225.62 65.0841 227.464 64.1774C229.308 63.2708 231.389 62.8177 233.705 62.8182C237.71 62.8182 240.739 63.8457 242.794 65.9008C244.849 67.9558 245.877 71.2489 245.877 75.7802V98.8262H236.203V78.1803C236.203 75.6306 235.776 73.718 234.922 72.4424C234.069 71.1669 232.725 70.5293 230.892 70.5298C228.531 70.5298 226.766 71.3728 225.596 73.0589C224.427 74.745 223.842 77.4231 223.842 81.093V98.8262Z" fill="white"/>
<path d="M287.417 98.8262H277.777V78.1803C277.777 75.6306 277.35 73.718 276.497 72.4424C275.644 71.1669 274.3 70.5293 272.466 70.5298C270 70.5298 268.209 71.4362 267.092 73.249C265.975 75.0617 265.416 78.0437 265.416 82.1949V98.8234H255.777V63.4826H263.143L264.439 68.0027H264.977C265.925 66.3804 267.295 65.1107 269.086 64.1934C270.877 63.2761 272.932 62.8177 275.252 62.8182C280.541 62.8182 284.124 64.5464 286.001 68.0027H286.854C287.802 66.3592 289.199 65.0841 291.043 64.1774C292.887 63.2708 294.968 62.8177 297.284 62.8182C301.288 62.8182 304.318 63.8457 306.373 65.9008C308.428 67.9558 309.456 71.2489 309.456 75.7802V98.8262H299.775V78.1803C299.775 75.6306 299.349 73.718 298.495 72.4424C297.642 71.1669 296.298 70.5293 294.464 70.5298C292.103 70.5298 290.338 71.3728 289.168 73.0589C287.999 74.745 287.415 77.4231 287.417 81.093V98.8262Z" fill="white"/>
<path d="M344.385 98.8262L343.088 94.3053H342.583C341.55 95.9498 340.085 97.2198 338.188 98.1153C336.292 99.0109 334.132 99.4586 331.708 99.4586C327.556 99.4586 324.426 98.347 322.318 96.1237C320.211 93.9003 319.157 90.702 319.157 86.5286V63.4826H328.796V84.1263C328.796 86.676 329.249 88.5884 330.156 89.8635C331.062 91.1386 332.506 91.7762 334.487 91.7762C337.185 91.7762 339.134 90.8746 340.335 89.0716C341.536 87.2685 342.137 84.281 342.138 80.1089V63.4826H351.778V98.8262H344.385Z" fill="white"/>
<path d="M373.09 99.4586C368.937 99.4586 365.676 97.8463 363.306 94.6216C360.935 91.3968 359.75 86.9289 359.749 81.2178C359.749 75.4217 360.955 70.9061 363.369 67.6712C365.782 64.4364 369.107 62.8182 373.343 62.8168C377.79 62.8168 381.183 64.545 383.522 68.0013H383.838C383.353 65.3661 383.111 63.0163 383.112 60.952V49.6357H392.785V98.8262H385.388L383.522 94.2422H383.112C380.92 97.7203 377.579 99.4591 373.09 99.4586ZM376.475 91.7762C378.941 91.7762 380.748 91.0596 381.897 89.6264C383.045 88.1932 383.672 85.7588 383.777 82.3233V81.283C383.777 77.4887 383.193 74.77 382.023 73.1269C380.853 71.4838 378.951 70.6618 376.317 70.6609C374.167 70.6609 372.497 71.5723 371.306 73.3953C370.115 75.2182 369.52 77.8685 369.52 81.3461C369.52 84.8233 370.121 87.4315 371.323 89.1707C372.525 90.91 374.242 91.7785 376.475 91.7762Z" fill="white"/>
<path d="M422.534 62.8182C426.707 62.8182 429.974 64.4463 432.334 67.7025C434.694 70.9586 435.875 75.4221 435.875 81.093C435.875 86.9317 434.658 91.4526 432.224 94.6555C429.79 97.8585 426.476 99.4603 422.281 99.4607C418.129 99.4607 414.872 97.9538 412.512 94.9399H411.848L410.236 98.8283H402.87V49.6357H412.509V61.0783C412.509 62.5327 412.383 64.8617 412.13 68.0651H412.509C414.766 64.5677 418.108 62.8187 422.534 62.8182ZM419.436 70.5319C417.054 70.5319 415.315 71.2644 414.22 72.7295C413.124 74.1947 412.555 76.6126 412.512 79.9834V81.0237C412.512 84.817 413.076 87.5357 414.204 89.1798C415.331 90.8238 417.117 91.6458 419.562 91.6458C421.543 91.6458 423.118 90.7343 424.288 88.9114C425.458 87.0884 426.043 84.4382 426.043 80.9605C426.043 77.4825 425.453 74.8743 424.273 73.1359C423.093 71.3976 421.481 70.5296 419.436 70.5319Z" fill="white"/>
<path d="M75.6741 0.196289C34.2763 0.196289 0.674072 33.7972 0.674072 75.1984C0.674072 116.6 34.2763 150.196 75.6741 150.196C117.071 150.13 150.606 116.593 150.675 75.1984C150.675 33.7972 117.071 0.196289 75.6741 0.196289ZM75.6741 3.47163C115.238 3.53682 147.334 35.6328 147.399 75.1984C147.399 114.827 115.303 146.923 75.6741 146.923C36.0454 146.923 3.94941 114.825 3.94941 75.1984C3.94941 35.5718 36.0454 3.47163 75.6741 3.47163V3.47163Z" fill="white"/>
<path d="M75.6741 141.943C71.7888 141.941 67.9105 141.613 64.0803 140.96C63.7846 140.929 63.5041 140.814 63.2719 140.628C63.0397 140.443 62.8656 140.194 62.7703 139.913C62.5734 139.323 62.6393 138.734 63.0318 138.275C63.2203 138.051 63.4669 137.884 63.7442 137.792C64.0216 137.699 64.3191 137.685 64.6039 137.751C71.9095 138.995 79.3728 138.995 86.6783 137.751C87.5951 137.62 88.4467 138.209 88.5778 139.061C88.7089 139.978 88.1194 140.829 87.2678 140.96C83.438 141.615 79.5595 141.944 75.6741 141.943V141.943ZM43.1197 133.297C42.8575 133.297 42.5302 133.231 42.3333 133.1C35.587 129.17 29.6258 124.126 24.58 118.165C23.9905 117.445 24.0564 116.463 24.7769 115.873C25.4975 115.283 26.4801 115.349 27.0696 116.07C31.8127 121.731 37.5098 126.519 43.9033 130.217C44.5587 130.609 44.8201 131.326 44.6897 132.05C44.5594 132.774 43.9054 133.297 43.1197 133.297ZM108.294 133.297C107.574 133.297 106.918 132.772 106.722 132.118C106.526 131.463 106.853 130.611 107.508 130.283C113.905 126.564 119.62 121.779 124.408 116.136C124.801 115.678 125.39 115.416 125.98 115.547C126.263 115.612 126.528 115.74 126.754 115.921C126.981 116.103 127.164 116.333 127.29 116.595C127.386 116.872 127.406 117.17 127.348 117.458C127.291 117.746 127.158 118.013 126.962 118.233C121.972 124.201 115.961 129.236 109.209 133.102C108.816 133.167 108.554 133.233 108.292 133.298L108.294 133.297ZM14.4953 99.2353C13.7747 99.2353 13.1853 98.7769 12.9231 98.1258C10.2373 90.7893 8.86208 83.0597 8.92726 75.2649C8.92726 74.8065 9.12352 74.4133 9.38566 74.086C9.71298 73.7587 10.1062 73.6276 10.5646 73.6276C10.7803 73.6254 10.9942 73.6662 11.1939 73.7477C11.3936 73.8292 11.575 73.9497 11.7276 74.1022C11.8801 74.2546 12.0007 74.436 12.0822 74.6357C12.1638 74.8353 12.2047 75.0493 12.2026 75.2649C12.2045 82.6622 13.5136 90.001 16.0695 96.9427C16.3975 97.7943 15.9391 98.7118 15.0875 99.0391C14.8254 99.1701 14.6943 99.1701 14.498 99.2353H14.4953ZM136.919 99.1701C136.72 99.1798 136.521 99.1563 136.329 99.1008C135.936 98.9697 135.609 98.6424 135.412 98.2499C135.227 97.8586 135.203 97.4101 135.347 97.0016C137.901 90.0584 139.146 82.6568 139.146 75.2545V75.129C139.154 74.7005 139.331 74.2925 139.637 73.9926C139.943 73.6927 140.355 73.5247 140.783 73.5247C141.212 73.5247 141.623 73.6927 141.929 73.9926C142.236 74.2925 142.412 74.7005 142.421 75.129V75.2601C142.421 83.0549 141.045 90.7845 138.425 98.1209C138.229 98.7104 137.573 99.1029 136.919 99.1688V99.1701ZM14.4294 54.6288C14.1596 54.6259 13.8942 54.5591 13.6552 54.4338C13.4162 54.3086 13.2102 54.1285 13.0542 53.9083C12.8953 53.6949 12.7937 53.4443 12.7593 53.1805C12.7248 52.9167 12.7585 52.6484 12.8573 52.4013C15.5431 45.0649 19.4079 38.2542 24.451 32.2902C24.5861 32.123 24.7535 31.9849 24.9433 31.8841C25.1331 31.7833 25.3414 31.7219 25.5555 31.7035C25.7696 31.6852 25.9853 31.7103 26.1894 31.7774C26.3936 31.8445 26.5821 31.9522 26.7437 32.0939C27.399 32.6834 27.5301 33.7313 26.9406 34.3824C22.159 40.0871 18.4274 46.506 15.9363 53.5151C15.8405 53.8394 15.6416 54.1236 15.3696 54.3246C15.0976 54.5256 14.7675 54.6324 14.4294 54.6288ZM136.853 54.4319C136.517 54.4281 136.19 54.3271 135.911 54.1411C135.632 53.9551 135.413 53.6921 135.28 53.384C132.726 46.4408 128.992 39.956 124.211 34.3228C123.817 33.8644 123.752 33.2749 123.948 32.6855C124.145 32.1612 124.604 31.7028 125.197 31.6369C125.79 31.571 126.376 31.768 126.769 32.2271C131.805 38.1693 135.752 44.954 138.428 52.2689C138.755 53.1205 138.297 54.0373 137.445 54.3653C137.249 54.3653 137.053 54.4305 136.856 54.4305L136.853 54.4319ZM43.0538 20.4364C42.3333 20.4364 41.6786 19.9121 41.4817 19.1916C41.2847 18.4711 41.6127 17.7505 42.2681 17.358C48.9927 13.4407 56.3535 10.7357 64.0145 9.36626C64.6039 9.23519 65.1934 9.49733 65.5866 9.95573C65.9798 10.4141 66.045 11.0043 65.8487 11.5937C65.6525 12.1832 65.1934 12.5764 64.6039 12.6416C57.3145 13.9495 50.3097 16.521 43.9054 20.2401C43.5781 20.3705 43.3159 20.4364 43.0538 20.4364ZM108.163 20.3705C107.901 20.3705 107.574 20.3053 107.377 20.1743C100.938 16.4931 93.9146 13.9452 86.6131 12.6416C85.7615 12.4453 85.2373 11.5937 85.3649 10.7421C85.4925 9.89054 86.3475 9.30107 87.1991 9.43214C94.8751 10.7548 102.259 13.4152 109.015 17.2921C109.67 17.6853 109.997 18.4059 109.801 19.1264C109.675 19.4679 109.454 19.7664 109.164 19.9868C108.874 20.2071 108.527 20.3403 108.165 20.3705H108.163Z" fill="white"/>
<path d="M75.6741 133.297C43.5781 133.297 17.5737 107.291 17.5737 75.1963C17.5737 43.1017 43.5795 17.0959 75.6741 17.0959C107.769 17.0959 133.775 43.1017 133.775 75.1963C133.709 107.227 107.705 133.232 75.6741 133.297ZM75.6741 20.3705C45.4124 20.3705 20.8491 44.9339 20.8491 75.1963C20.8491 105.459 45.4124 130.021 75.6741 130.021C105.936 130.021 130.499 105.458 130.499 75.1963C130.434 44.9339 105.936 20.4364 75.6741 20.3705V20.3705Z" fill="white"/>
<path d="M72.5956 91.5716C72.4612 91.5821 72.3263 91.5597 72.2024 91.5064C66.2385 89.9343 61.5227 85.4148 59.626 79.5847C58.6859 76.705 58.4872 73.6348 59.0482 70.658C59.6092 67.6812 60.9118 64.8939 62.8355 62.554V62.4888C63.2287 62.0304 63.6219 61.572 64.0144 61.1788L78.6221 46.5719C80.8695 44.3166 83.6718 42.6936 86.7464 41.8667C89.8211 41.0397 93.0594 41.038 96.1349 41.8617C99.2104 42.6854 102.014 44.3053 104.264 46.5582C106.514 48.8111 108.13 51.6174 108.95 54.694C109.783 57.7656 109.785 61.0034 108.957 64.0762C108.128 67.1491 106.498 69.9467 104.234 72.1831L89.6263 86.79C89.1679 87.2484 88.7095 87.6416 88.2511 88.0348C87.937 88.2807 87.5437 88.4031 87.1455 88.3789C86.7474 88.3547 86.3718 88.1856 86.0897 87.9036C85.8076 87.6215 85.6386 87.2459 85.6144 86.8477C85.5902 86.4496 85.7126 86.0563 85.9585 85.7422C88.9717 82.0084 90.0195 77.0958 88.7754 72.5104C88.6443 71.9209 88.7754 71.3315 89.1679 70.9383L96.0459 64.061C97.2405 62.8123 97.8963 61.144 97.8717 59.4162C97.8472 57.6883 97.1444 56.0393 95.9149 54.8251C93.3601 52.2703 89.2338 52.2051 86.679 54.694L72.0714 69.3037C70.8308 70.5467 70.134 72.2311 70.134 73.9872C70.134 75.7433 70.8308 77.4277 72.0714 78.6707C74.2982 80.8974 77.7698 81.2255 80.3932 79.5223C81.0479 79.1291 81.8995 79.1949 82.4238 79.7185C82.69 79.9799 82.8556 80.3267 82.8914 80.6981C82.9273 81.0694 82.8312 81.4415 82.62 81.749C82.2268 82.3385 81.8343 82.8628 81.3752 83.3212L73.6463 91.0508C73.45 91.4433 72.9909 91.5744 72.5984 91.5744L72.5956 91.5716ZM65.3244 64.6504C63.8151 66.5125 62.7818 68.7142 62.314 71.0651C61.8461 73.416 61.9578 75.8455 62.6392 78.1436C64.0144 82.7941 67.5519 86.5279 72.14 88.1L76.3322 83.9079C74.5975 83.8146 72.9172 83.27 71.4576 82.328C69.998 81.386 68.8097 80.0791 68.0103 78.5368C66.4382 75.3925 66.6344 71.5936 68.5998 68.6463C68.993 68.0561 69.3855 67.5326 69.848 67.0742L84.455 52.5324C88.3191 48.6676 94.6076 48.6676 98.4724 52.5324C102.337 56.3972 102.337 62.6851 98.4724 66.5499L92.2463 72.7712C92.5095 74.0203 92.641 75.2935 92.6388 76.5701C92.6494 77.624 92.5618 78.6766 92.3774 79.7144L102.006 70.1512C107.836 64.3217 107.836 54.8889 102.006 49.1246C96.1763 43.2979 86.7442 43.2979 80.9799 49.1232L66.373 63.7309C65.9798 63.8612 65.6525 64.1893 65.3244 64.6476V64.6504Z" fill="white"/>
<path d="M76.8529 83.9079C73.1851 83.9079 69.8446 81.9432 68.1414 78.7331C66.4381 75.5229 66.5692 71.6595 68.5997 68.5804C68.7182 68.3967 68.8745 68.2405 69.0581 68.122C70.5574 67.1512 72.2881 66.5971 74.0723 66.5166C75.8566 66.436 77.6302 66.8319 79.2108 67.6636C82.421 69.3661 84.3856 72.7073 84.3856 76.3752C84.3856 78.2747 83.7961 80.1741 82.7483 81.8121C82.6298 81.9958 82.4735 82.1521 82.2899 82.2705C80.6519 83.3184 78.8183 83.9079 76.8529 83.9079ZM71.1546 70.6768C69.6476 73.2968 70.0408 76.5715 72.2024 78.6679C74.2981 80.7636 77.6394 81.2227 80.1935 79.7157C80.7829 78.6679 81.111 77.5541 81.111 76.3752C81.111 74.0173 79.8627 71.7899 77.7697 70.6109C75.6768 69.432 73.1851 69.4972 71.1546 70.6803V70.6768Z" fill="white"/>
<path d="M90.4114 73.7552C90.2767 73.7645 90.1417 73.7407 90.0182 73.6859C89.4288 73.5555 89.0355 73.0964 88.8393 72.5069C88.1626 69.9956 86.8386 67.7059 84.9995 65.8668C83.1603 64.0277 80.8706 62.7036 78.3593 62.027C77.7691 61.8959 77.3766 61.4375 77.2456 60.848C77.1145 60.2586 77.2456 59.6691 77.704 59.2759L84.5168 52.4014C88.3816 48.5365 94.6694 48.5365 98.5342 52.4014C102.399 56.2662 102.399 62.554 98.5342 66.4188L91.6597 73.2309C91.2665 73.559 90.8733 73.7552 90.4114 73.7552ZM81.765 59.7378C85.9548 61.5701 89.2997 64.9149 91.132 69.1047L96.1098 64.061C97.813 62.4229 98.537 59.934 97.9441 57.6413C97.6467 56.5078 97.0533 55.4737 96.2247 54.645C95.396 53.8164 94.3619 53.223 93.2284 52.9256C90.9399 52.3362 88.4468 52.9908 86.8095 54.7592L81.765 59.7378Z" fill="white"/>
<path d="M76.8529 83.9079C73.1851 83.9079 69.8446 81.9432 68.1414 78.7331C66.4381 75.5229 66.5692 71.6595 68.5997 68.5804C68.7182 68.3967 68.8745 68.2405 69.0581 68.122C70.5574 67.1512 72.2881 66.5971 74.0723 66.5166C75.8566 66.436 77.6302 66.8319 79.2108 67.6636C82.421 69.3661 84.3856 72.7073 84.3856 76.3752C84.3856 78.2747 83.7961 80.1741 82.7483 81.8121C82.6298 81.9958 82.4735 82.1521 82.2899 82.2705C80.6519 83.3184 78.8183 83.9079 76.8529 83.9079ZM71.1546 70.6768C69.6476 73.2968 70.0408 76.5715 72.2024 78.6679C74.2981 80.7636 77.6394 81.2227 80.1935 79.7157C80.7829 78.6679 81.111 77.5541 81.111 76.3752C81.111 74.0173 79.8627 71.7899 77.7697 70.6109C75.6768 69.432 73.1851 69.4972 71.1546 70.6803V70.6768Z" fill="white"/>
<path d="M90.4114 73.7552C90.2767 73.7645 90.1417 73.7407 90.0182 73.6859C89.4288 73.5555 89.0355 73.0964 88.8393 72.5069C88.1626 69.9956 86.8386 67.7059 84.9995 65.8668C83.1603 64.0277 80.8706 62.7036 78.3593 62.027C77.7691 61.8959 77.3766 61.4375 77.2456 60.848C77.1145 60.2586 77.2456 59.6691 77.704 59.2759L84.5168 52.4014C88.3816 48.5365 94.6694 48.5365 98.5342 52.4014C102.399 56.2662 102.399 62.554 98.5342 66.4188L91.6597 73.2309C91.2665 73.559 90.8733 73.7552 90.4114 73.7552ZM81.765 59.7378C85.9548 61.5701 89.2997 64.9149 91.132 69.1047L96.1098 64.061C97.813 62.4229 98.537 59.934 97.9441 57.6413C97.6467 56.5078 97.0533 55.4737 96.2247 54.645C95.396 53.8164 94.3619 53.223 93.2284 52.9256C90.9399 52.3362 88.4468 52.9908 86.8095 54.7592L81.765 59.7378Z" fill="white"/>
<path d="M59.8882 109.127C56.2977 109.132 52.7867 108.07 49.8011 106.075C46.8154 104.081 44.4898 101.244 43.1197 97.9254C40.3028 91.1791 41.8749 83.3184 47.0497 78.1436L61.6566 63.5367C62.115 63.0783 62.5734 62.6851 63.0318 62.2926C63.3459 62.0499 63.7376 61.93 64.1337 61.9551C64.5298 61.9802 64.9031 62.1487 65.184 62.4291C65.4649 62.7095 65.6341 63.0826 65.66 63.4786C65.6858 63.8747 65.5666 64.2666 65.3245 64.5811C62.3113 68.3148 61.2634 73.2275 62.5082 77.8128C62.6393 78.4023 62.5082 78.9918 62.115 79.385L55.2377 86.2664C54.0431 87.5149 53.3872 89.183 53.4116 90.9107C53.436 92.6385 54.1387 94.2874 55.3681 95.5016C57.9229 98.0564 62.0498 98.1223 64.6039 95.6327L79.2109 81.093C79.5298 80.7735 79.8152 80.4221 80.0625 80.0445C80.783 78.9349 81.111 77.6866 81.1762 76.3766C81.1762 73.9494 79.8003 71.7261 77.7046 70.5472C76.6618 69.9755 75.4832 69.6979 74.2949 69.7441C73.1065 69.7902 71.953 70.1584 70.9577 70.8093C70.303 71.2018 69.4514 71.1366 68.9271 70.6123C68.6609 70.351 68.4954 70.0041 68.4595 69.6328C68.4236 69.2615 68.5197 68.8893 68.7309 68.5818C69.1241 67.9923 69.5166 67.4681 69.975 67.0097L77.6394 59.2808C77.8418 59.0786 78.0919 58.9306 78.3665 58.8505C78.6411 58.7704 78.9315 58.7607 79.2109 58.8224C85.1749 60.3938 89.8906 64.914 91.7873 70.7434C92.7276 73.623 92.9264 76.6933 92.3654 79.6701C91.8044 82.647 90.5017 85.4342 88.5778 87.7741V87.8393C88.1853 88.2984 87.7921 88.7568 87.3989 89.1493L72.7275 103.755C69.3211 107.227 64.7357 109.127 59.8889 109.127H59.8882ZM59.0366 70.8731L49.4076 80.4363C43.7092 86.2664 43.7744 95.5675 49.5386 101.332C55.3029 107.096 64.604 107.161 70.4341 101.463L85.041 86.8559C85.3684 86.5279 85.6957 86.1354 86.0237 85.7422L86.0889 85.6728C87.5982 83.8107 88.6315 81.6091 89.0995 79.2582C89.5674 76.9073 89.456 74.4778 88.7748 72.1796C87.3989 67.5291 83.8621 63.7954 79.274 62.2232L75.0819 66.4812C76.8165 66.5745 78.4968 67.1191 79.9564 68.0611C81.416 69.0031 82.6043 70.31 83.4037 71.8523C84.9758 74.9966 84.7796 78.7955 82.8142 81.7428C82.4217 82.3323 82.0285 82.8566 81.5701 83.315L66.9632 97.9219C63.0984 101.787 56.8098 101.787 52.9457 97.9219C49.0816 94.0571 49.0809 87.7692 52.9457 83.9044L59.1684 77.6818C58.6327 75.4472 58.588 73.1231 59.0373 70.8696L59.0366 70.8731Z" fill="white"/>
<path d="M76.8529 83.9079C73.1851 83.9079 69.8446 81.9432 68.1414 78.7331C66.4381 75.5229 66.5692 71.6595 68.5997 68.5804C68.7182 68.3968 68.8745 68.2405 69.0581 68.122C70.9689 66.8822 73.2473 66.3359 75.5125 66.5745C77.7777 66.813 79.8924 67.8219 81.503 69.4325C83.1136 71.0431 84.1225 73.1578 84.361 75.423C84.5995 77.6882 84.0533 79.9666 82.8135 81.8774C82.6953 82.0612 82.5389 82.2176 82.3551 82.3358C80.6519 83.3184 78.8183 83.9079 76.8529 83.9079ZM71.1546 70.6768C69.6476 73.2968 70.0408 76.5715 72.2024 78.6679C74.2981 80.7636 77.6394 81.2227 80.1935 79.7158C80.7829 78.6679 81.111 77.5541 81.111 76.3752C81.111 74.0174 79.8003 71.8558 77.7697 70.6768C76.7638 70.0972 75.6232 69.7921 74.4621 69.7921C73.3011 69.7921 72.1605 70.0972 71.1546 70.6768V70.6768Z" fill="white"/>
<path d="M59.8883 100.873C57.9381 100.873 56.032 100.293 54.4113 99.209C52.7905 98.1245 51.528 96.5835 50.7835 94.7811C49.2765 91.1132 50.1281 86.8559 52.9451 83.9738L59.7593 77.1609C60.1525 76.7684 60.8071 76.5715 61.3314 76.7025C61.9209 76.8336 62.3134 77.292 62.5103 77.8815C63.1869 80.3929 64.511 82.6827 66.3501 84.522C68.1892 86.3612 70.4789 87.6854 72.9903 88.3622C73.5798 88.4932 73.973 88.9516 74.1693 89.5411C74.2996 90.1305 74.1693 90.72 73.776 91.1132L66.9639 97.9254C65.0896 99.8062 62.5456 100.866 59.8903 100.873H59.8883ZM60.2156 81.2879L55.1718 86.2657C53.9773 87.5144 53.3215 89.1827 53.3461 90.9105C53.3706 92.6384 54.0734 94.2874 55.3029 95.5016C57.8577 98.0564 61.984 98.1216 64.5388 95.6327L69.5825 90.6548C65.3927 88.8225 62.0479 85.4777 60.2156 81.2879V81.2879Z" fill="white"/>
<path d="M76.8529 83.9079C73.1851 83.9079 69.8446 81.9432 68.1414 78.7331C66.4381 75.5229 66.5692 71.6595 68.5997 68.5804C68.7182 68.3968 68.8745 68.2405 69.0581 68.122C70.9689 66.8822 73.2473 66.3359 75.5125 66.5745C77.7777 66.813 79.8924 67.8219 81.503 69.4325C83.1136 71.0431 84.1225 73.1578 84.361 75.423C84.5995 77.6882 84.0533 79.9666 82.8135 81.8774C82.6953 82.0612 82.5389 82.2176 82.3551 82.3358C80.6519 83.3184 78.8183 83.9079 76.8529 83.9079ZM71.1546 70.6768C69.6476 73.2968 70.0408 76.5715 72.2024 78.6679C74.2981 80.7636 77.6394 81.2227 80.1935 79.7158C80.7829 78.6679 81.111 77.5541 81.111 76.3752C81.111 74.0174 79.8003 71.8558 77.7697 70.6768C76.7638 70.0972 75.6232 69.7921 74.4621 69.7921C73.3011 69.7921 72.1605 70.0972 71.1546 70.6768V70.6768Z" fill="white"/>
<path d="M59.8883 100.873C57.9381 100.873 56.032 100.293 54.4113 99.209C52.7905 98.1245 51.528 96.5835 50.7835 94.7811C49.2765 91.1132 50.1281 86.8559 52.9451 83.9738L59.7593 77.1609C60.1525 76.7684 60.8071 76.5715 61.3314 76.7025C61.9209 76.8336 62.3134 77.292 62.5103 77.8815C63.1869 80.3929 64.511 82.6827 66.3501 84.522C68.1892 86.3612 70.4789 87.6854 72.9903 88.3622C73.5798 88.4932 73.973 88.9516 74.1693 89.5411C74.2996 90.1305 74.1693 90.72 73.776 91.1132L66.9639 97.9254C65.0896 99.8062 62.5456 100.866 59.8903 100.873H59.8883ZM60.2156 81.2879L55.1718 86.2657C53.9773 87.5144 53.3215 89.1827 53.3461 90.9105C53.3706 92.6384 54.0734 94.2874 55.3029 95.5016C57.8577 98.0564 61.984 98.1216 64.5388 95.6327L69.5825 90.6548C65.3927 88.8225 62.0479 85.4777 60.2156 81.2879V81.2879Z" fill="white"/>
</g>
<defs>
<clipPath id="clip0_1320_2403">
<rect width="435.201" height="150" fill="white" transform="translate(0.674072 0.196289)"/>
</clipPath>
</defs>
</svg>
